<svg xmlns="http://www.w3.org/2000/svg" version="1.1" xmlns:xlink="http://www.w3.org/1999/xlink" xmlns:svgjs="http://svgjs.dev/svgjs" width="100%" height="100%" viewBox="0 0 1000 600"><rect width="1000" height="600" x="0" y="0" fill="#ffff"/><g><circle r="166.66666666666666" cx="391.85602823893225" cy="414.0782642031834" fill="#358d5f" transform="matrix(0.5550884143633825,0,0,0.5550884143633825,0,70.14997182381042)"/><path d="M434.34776201860916 444.6887860649389L444.2074967922668 449.0204687060856Q436.657992760554 471.6689808012238 422.5903377069253 480.37360020390906Q408.5226826532966 489.07821960659425 389.3807707914675 489.07821960659425L389.3807707914675 489.07821960659425Q376.92202643312186 489.07821960659425 366.484733973978 483.6739298352589Q356.04744151483413 478.31089418431543 348.4979374831214 469.02871709614396Q340.9484334514086 459.74654000797256 336.74051317143756 447.12277916805937Q332.5325928914665 434.54027244853813 332.5325928914665 420.01882207059884L332.5325928914665 420.01882207059884Q332.5325928914665 401.45446789425597 336.74051317143756 386.52047631239793Q340.9484334514086 371.5864847305399 348.9104786870401 360.9841757898285Q356.9137780430635 350.42312096950906 368.5061858731798 344.7300523554306Q380.0985937032961 339.07823786174396 394.9088229239785 339.07823786174396L394.9088229239785 339.07823786174396Q407.36756728232416 339.07823786174396 417.804859741468 346.0501842079705Q428.24215220061194 353.0221305541971 435.66789387114903 363.91321833765153Q443.05238142129434 374.76305200071414 447.09528521969787 388.129387007681Q451.1794431384933 401.45446789425597 451.1794431384933 413.9132122526016L451.1794431384933 413.9132122526016L451.1794431384933 417.70859132865394L358.357672256779 417.70859132865394Q359.51278762775144 443.82244953670954 370.11509656846283 458.302645794257Q380.67615138878233 472.8240961721963 398.9517267223821 472.8240961721963L398.9517267223821 472.8240961721963Q404.1910000121499 472.8240961721963 409.38901918152595 470.9264066341701Q414.62829247129383 469.02871709614396 419.41377043675107 465.3983545016591Q424.19924840220835 461.8092460275662 428.1183898394363 456.5699727377983Q432.03753127666425 451.33069944803043 434.34776201860916 444.6887860649389L434.34776201860916 444.6887860649389ZM425.3543637731808 391.3059542778552L425.3543637731808 391.3059542778552Q425.3543637731808 374.474273157971 417.1035396948062 363.748201856084Q408.8114614960397 353.0221305541971 394.9088229239785 353.0221305541971L394.9088229239785 353.0221305541971Q379.809814860553 353.0221305541971 370.23885892963847 366.347211440772Q360.6679029987239 379.7135464477389 358.9352299422652 402.3208044224853L358.9352299422652 402.3208044224853L411.1629463583765 402.3208044224853Q416.36096552775246 402.3208044224853 419.2487539551836 401.90826321856656Q422.17779650300656 401.45446789425597 423.45667423515465 400.2993525232835Q424.7768060876946 399.14423715231106 425.0655849304377 396.9577687715418Q425.3543637731808 394.7713003907725 425.3543637731808 391.3059542778552Z " fill="#e7d045" transform="matrix(0.5550884143633825,0,0,0.5550884143633825,0,70.14997182381042)"/><path d="M641.8560179852732 342.18433421488425L746.6113713361773 342.18433421488425L746.6113713361773 392.23930625686705L738.887347643812 392.23930625686705Q737.1556270295094 378.7153928880282 735.2040053848193 370.57905476368614Q733.2798713689276 362.47020426814254 728.9368260187721 358.31957231957614Q724.5937806686164 354.16894037100974 716.5673930594683 352.90450944628094Q708.54100545032 351.6400785215521 695.0170920814811 351.6400785215521L695.0170920814811 351.6400785215521L690.3716828145425 351.6400785215521Q685.5338601460148 351.6400785215521 682.5377086069834 352.3272692415134Q679.5415570679521 352.98697233267626 677.8098364536495 354.36135377259893Q676.078115839347 355.7082475837231 675.3909251193857 357.43996819802567Q674.7312220282229 359.17168881232817 674.7312220282229 361.5081372601967L674.7312220282229 361.5081372601967L674.7312220282229 407.87976704318675L684.1869663348907 407.87976704318675Q696.5563992941945 407.87976704318675 702.3562889706681 401.2277608739612Q708.1561786471416 394.54826707593713 709.1182456550874 379.67745989597404L709.1182456550874 379.67745989597404L717.0346827490418 379.67745989597404L717.0346827490418 445.3728927242766L709.1182456550874 445.3728927242766Q709.1182456550874 417.17058557706383 687.6778951922942 417.17058557706383L687.6778951922942 417.17058557706383L674.7312220282229 417.17058557706383L674.7312220282229 466.4559040126899Q674.7312220282229 471.48614008280686 677.8098364536495 473.98751430346607Q680.9159385078747 476.4888885241253 690.3716828145425 476.4888885241253L690.3716828145425 476.4888885241253L695.0170920814811 476.4888885241253Q704.0880095849706 476.4888885241253 710.5750899814054 476.0215988345516Q717.0346827490418 475.5268215161794 721.5976291295851 474.09746481865983Q726.1330878813299 472.64062049234184 728.9368260187721 469.83688235489967Q731.7405641562142 467.03314421745745 733.5822352857106 462.5801483521081Q735.3964187864085 458.1271524867587 736.578386824742 451.5576092039285Q737.7328672342769 444.9880659210982 738.887347643812 435.91714841760876L738.887347643812 435.91714841760876L746.6113713361773 435.91714841760876L746.6113713361773 485.9721204595915L641.8560179852732 485.9721204595915L641.8560179852732 477.4784431608696L646.6938406538009 477.4784431608696Q650.1847695112044 477.4784431608696 653.070970535042 475.1419947130011Q655.984659187678 472.83303389393103 655.984659187678 466.4559040126899L655.984659187678 466.4559040126899L655.984659187678 361.892964063375Q655.984659187678 355.3234207805448 653.070970535042 353.0969228478701Q650.1847695112044 350.87042491519543 646.6938406538009 350.87042491519543L646.6938406538009 350.87042491519543L641.8560179852732 350.87042491519543L641.8560179852732 342.18433421488425ZM779.486575379127 357.05514139484734L791.0588671032757 357.05514139484734L791.0588671032757 393.00895986322377L818.7114216745193 393.00895986322377L818.7114216745193 404.6087392161709L791.2512805048648 404.6087392161709L791.2512805048648 461.04084113939473Q791.2512805048648 476.4888885241253 803.4283000625794 476.4888885241253L803.4283000625794 476.4888885241253Q810.7949845805648 476.4888885241253 814.7532031275421 469.91934524129505Q818.7114216745193 463.34980195846475 818.7114216745193 453.12440404544026L818.7114216745193 453.12440404544026L826.4354453668846 453.12440404544026L826.4354453668846 454.6637112581537Q826.4354453668846 471.678553484396 819.0962484776976 479.59499057835046Q811.7570515885106 487.51142767230493 797.0511701813383 487.51142767230493L797.0511701813383 487.51142767230493Q787.2105990714922 487.51142767230493 781.0258825918403 481.4366617078468Q774.8411661121884 475.33440811459025 774.8411661121884 466.0710772095116L774.8411661121884 466.0710772095116L774.8411661121884 404.6087392161709L758.4035640907135 404.6087392161709L758.4035640907135 393.00895986322377L759.942871303427 393.00895986322377Q765.7427609799005 393.00895986322377 769.4261032388932 392.43171965845625Q773.0819578690874 391.8544794536887 775.1160424001729 389.7104444074094Q777.1501269312585 387.5938969899285 777.9197805376151 383.6356784429513Q778.6894341439719 379.67745989597404 778.6894341439719 372.7230898099655L778.6894341439719 372.7230898099655Q778.6894341439719 370.9638815668645 778.6894341439719 368.8473341493836Q778.6894341439719 366.7307867319027 778.7993846591656 364.50428879922805Q778.881847545561 362.2777908665534 778.9917980607548 360.35365685066165Q779.0742609471502 358.4020352059715 779.486575379127 357.05514139484734L779.486575379127 357.05514139484734ZM862.389263835261 339.07823216065907L862.389263835261 409.0617350815202L862.9665040400286 409.0617350815202Q866.6498462990212 400.732983555589 875.0335730825493 395.7027474854721Q883.4447874948759 390.6999990441537 892.735606028753 390.6999990441537L892.735606028753 390.6999990441537Q905.6822791928244 390.6999990441537 913.7086668019725 399.578503146054Q921.7350544111208 408.45700724795427 921.7350544111208 428.1931247252435L921.7350544111208 428.1931247252435L921.7350544111208 467.80279782381416Q921.7350544111208 474.17992770505526 924.6212554349585 476.4888885241253Q927.5074564587959 478.82533697199375 931.1907987177887 478.82533697199375L931.1907987177887 478.82533697199375L934.6817275751922 478.82533697199375L934.6817275751922 485.9721204595915L892.3507792255747 485.9721204595915L892.3507792255747 478.6329235704046L896.0066338557689 478.6329235704046Q899.3051493115832 478.6329235704046 902.3013008506147 476.5988390393191Q905.297452389646 474.56475450823353 905.297452389646 468.3800380285816L905.297452389646 468.3800380285816L905.297452389646 428.0007113236543Q905.297452389646 414.44931032601704 900.1847534331338 408.7593711647373Q895.044566847823 403.0694320034575 888.0901967618145 403.0694320034575L888.0901967618145 403.0694320034575Q882.8675472901084 403.0694320034575 878.1396751367745 405.95563302729505Q873.4118029834406 408.8693216799311 869.9208741260371 413.67965671966033Q866.457432897432 418.51747938818806 864.4233483663464 424.8946092694291Q862.389263835261 431.2717391506702 862.389263835261 438.03369583508965L862.389263835261 438.03369583508965L862.389263835261 467.80279782381416Q862.389263835261 474.17992770505526 865.2754648590985 476.4888885241253Q868.1891535117346 478.82533697199375 871.6525947403396 478.82533697199375L871.6525947403396 478.82533697199375L875.3359369993323 478.82533697199375L875.3359369993323 485.9721204595915L833.0049886497147 485.9721204595915L833.0049886497147 478.6329235704046L836.4959175071183 478.6329235704046Q840.1517721373126 478.6329235704046 843.0654607899486 476.4064256377299Q845.9516618137861 474.17992770505526 845.9516618137861 467.80279782381416L845.9516618137861 467.80279782381416L845.9516618137861 362.0853774649642Q845.9516618137861 356.4779011900798 845.099545321034 353.5917001662422Q844.2199411994836 350.67801151360624 839.3821185309558 350.2931847104279L839.3821185309558 350.2931847104279L830.3112010274664 349.5235311040712L830.3112010274664 342.18433421488425L862.389263835261 339.07823216065907ZM974.2914006737628 359.3915898427158L974.2914006737628 359.3915898427158Q974.2914006737628 363.6246846776776 970.9928852179485 367.00566301988727Q967.7218573909325 370.386641362097 963.2688615255832 370.386641362097L963.2688615255832 370.386641362097Q958.8433532890323 370.386641362097 955.6273007196132 367.00566301988727Q952.4387357789927 363.6246846776776 952.4387357789927 359.3915898427158L952.4387357789927 359.3915898427158Q952.4387357789927 355.1310073789556 955.6273007196132 351.7500290367459Q958.8433532890323 348.36905069453616 963.2688615255832 348.36905069453616L963.2688615255832 348.36905069453616Q967.7218573909325 348.36905069453616 970.9928852179485 351.7500290367459Q974.2914006737628 355.1310073789556 974.2914006737628 359.3915898427158ZM977.397502727988 389.1332042026419L977.397502727988 467.80279782381416Q977.397502727988 474.17992770505526 980.3661666382209 476.4888885241253Q983.3623181772523 478.82533697199375 986.8532470346557 478.82533697199375L986.8532470346557 478.82533697199375L990.3441758920593 478.82533697199375L990.3441758920593 485.9721204595915L948.0132275424418 485.9721204595915L948.0132275424418 478.6329235704046L951.6690821726361 478.6329235704046Q955.1600110300396 478.6329235704046 958.0462120538772 476.4064256377299Q960.9599007065132 474.17992770505526 960.9599007065132 467.80279782381416L960.9599007065132 467.80279782381416L960.9599007065132 412.14034950694696Q960.9599007065132 406.53287323206257 960.0802965849626 403.646672208225Q959.2281800922107 400.732983555589 954.390357423683 400.34815675241066L954.390357423683 400.34815675241066L945.291952291395 399.578503146054L945.291952291395 392.23930625686705L977.397502727988 389.1332042026419ZM1004.6377428672548 438.9957628430355L1004.6377428672548 438.9957628430355Q1004.6377428672548 428.770364930011 1007.8263078078754 419.6719597977231Q1011.014872748496 410.6010422942336 1016.4299356217912 403.83908560981416Q1021.8449984950864 397.0771289253948 1029.0742448690794 393.0914227496191Q1036.3309788718711 389.1332042026419 1044.6322427690038 389.1332042026419L1044.6322427690038 389.1332042026419Q1052.768580893346 389.1332042026419 1059.997827267339 393.0914227496191Q1067.2545612701306 397.0771289253948 1072.6696241434256 403.83908560981416Q1078.084687016721 410.6010422942336 1081.2732519573415 419.6719597977231Q1084.4618168979623 428.770364930011 1084.4618168979623 438.9957628430355L1084.4618168979623 438.9957628430355Q1084.4618168979623 449.4410617864476 1081.2732519573415 458.5394669187355Q1078.084687016721 467.61038442222497 1072.6696241434256 474.3723411066444Q1067.2545612701306 481.13429779106383 1059.997827267339 485.09251633804104Q1052.768580893346 489.0782225138167 1044.6322427690038 489.0782225138167L1044.6322427690038 489.0782225138167Q1036.3309788718711 489.0782225138167 1029.0742448690794 485.09251633804104Q1021.8449984950864 481.13429779106383 1016.4299356217912 474.3723411066444Q1011.014872748496 467.61038442222497 1007.8263078078754 458.5394669187355Q1004.6377428672548 449.4410617864476 1004.6377428672548 438.9957628430355ZM1021.8449984950864 438.9957628430355L1021.8449984950864 438.9957628430355Q1021.8449984950864 447.5169277705559 1023.6591819957843 454.8561246597428Q1025.5008531252806 462.19532154892977 1028.689418065901 467.80279782381416Q1031.8779830065218 473.41027409869855 1036.028614955088 476.5988390393191Q1040.206734532453 479.7874039799396 1045.0170695721822 479.7874039799396L1045.0170695721822 479.7874039799396Q1049.85489224071 479.7874039799396 1054.0055241892765 476.5988390393191Q1058.1836437666411 473.41027409869855 1061.2622581920677 467.80279782381416Q1064.3683602462932 462.19532154892977 1066.182543746991 454.8561246597428Q1068.0242148764873 447.5169277705559 1068.0242148764873 438.9957628430355L1068.0242148764873 438.9957628430355Q1068.0242148764873 430.6944989459027 1066.182543746991 423.245351541522Q1064.3683602462932 415.82369176593966 1061.2622581920677 410.29867837745064Q1058.1836437666411 404.80115261776 1054.0055241892765 401.6125876771395Q1049.85489224071 398.42402273651896 1045.0170695721822 398.42402273651896L1045.0170695721822 398.42402273651896Q1040.206734532453 398.42402273651896 1036.028614955088 401.6125876771395Q1031.8779830065218 404.80115261776 1028.689418065901 410.29867837745064Q1025.5008531252806 415.82369176593966 1023.6591819957843 423.245351541522Q1021.8449984950864 430.6944989459027 1021.8449984950864 438.9957628430355ZM1210.6575207116596 393.58620006799123L1204.6652176335967 393.58620006799123Q1204.0879774288292 389.7104444074094 1203.6206877392556 385.86217637562595Q1203.1259104208834 381.9864207150441 1202.741083617705 378.1381526832607L1202.741083617705 378.1381526832607Q1201.7790166097593 371.541121771632 1199.9373454802628 366.53837333031356Q1198.0956743507666 361.5081372601967 1194.6322331221613 358.2096218043823Q1191.1413042647578 354.93859397736645 1185.8361919066565 353.28933624945927Q1180.5035919197567 351.6400785215521 1172.5871548258021 351.6400785215521L1172.5871548258021 351.6400785215521Q1169.5085404003755 351.6400785215521 1167.7493321572745 352.1348558399242Q1166.017611542972 352.60214552949793 1165.1380074214214 353.86657645422673Q1164.2858909286695 355.1310073789556 1164.0934775270803 357.5499187132195Q1163.901064125491 359.9688300474833 1163.901064125491 363.8170980792667L1163.901064125491 363.8170980792667L1163.901064125491 463.1573885568756Q1163.901064125491 472.83303389393103 1165.2479579366154 474.3723411066444L1165.2479579366154 474.3723411066444Q1166.979678550918 477.09361635769125 1175.3084300768492 477.09361635769125L1175.3084300768492 477.09361635769125L1179.926351714989 477.09361635769125L1179.926351714989 485.9721204595915L1128.1396590587037 485.9721204595915L1128.1396590587037 477.09361635769125L1135.863682751069 476.6813019257144Q1138.9697848052942 476.4888885241253 1140.7015054195967 476.2140122361407Q1142.4332260338992 475.91164831935777 1143.3128301554498 474.7571679098227Q1144.164946648202 473.6026875002877 1144.467310564985 471.18377616602385Q1144.7696744817679 468.76486483176 1144.7696744817679 464.7241833983874L1144.7696744817679 464.7241833983874L1144.7696744817679 360.73848365384Q1144.7696744817679 355.5158341821339 1143.202879640256 353.5917001662422Q1141.6635724275425 351.6400785215521 1135.4788559478907 351.6400785215521L1135.4788559478907 351.6400785215521Q1116.3474663041675 351.6400785215521 1110.3551632261047 361.5081372601967L1110.3551632261047 361.5081372601967Q1109.20068281657 363.6246846776776 1107.5514250886627 371.4586588852367Q1105.9021673607554 379.2926330927957 1103.7856199432745 393.00895986322377L1103.7856199432745 393.00895986322377L1096.831249857266 393.00895986322377L1096.831249857266 342.18433421488425L1210.6575207116596 342.18433421488425L1210.6575207116596 393.58620006799123ZM1224.1814340804985 438.9957628430355L1224.1814340804985 438.9957628430355Q1224.1814340804985 428.770364930011 1227.369999021119 419.6719597977231Q1230.5585639617393 410.6010422942336 1235.9736268350348 403.83908560981416Q1241.3886897083298 397.0771289253948 1248.6454237111216 393.0914227496191Q1255.9021577139129 389.1332042026419 1264.203421611046 389.1332042026419L1264.203421611046 389.1332042026419Q1272.3122721065893 389.1332042026419 1279.569006109381 393.0914227496191Q1286.8257401121728 397.0771289253948 1292.2133153566692 403.83908560981416Q1297.6283782299647 410.6010422942336 1300.816943170585 419.6719597977231Q1304.0055081112055 428.770364930011 1304.0055081112055 438.9957628430355L1304.0055081112055 438.9957628430355Q1304.0055081112055 449.4410617864476 1300.816943170585 458.5394669187355Q1297.6283782299647 467.61038442222497 1292.2133153566692 474.3723411066444Q1286.8257401121728 481.13429779106383 1279.569006109381 485.09251633804104Q1272.3122721065893 489.0782225138167 1264.203421611046 489.0782225138167L1264.203421611046 489.0782225138167Q1255.9021577139129 489.0782225138167 1248.6454237111216 485.09251633804104Q1241.3886897083298 481.13429779106383 1235.9736268350348 474.3723411066444Q1230.5585639617393 467.61038442222497 1227.369999021119 458.5394669187355Q1224.1814340804985 449.4410617864476 1224.1814340804985 438.9957628430355ZM1241.3886897083298 438.9957628430355L1241.3886897083298 438.9957628430355Q1241.3886897083298 447.5169277705559 1243.230360837826 454.8561246597428Q1245.0720319673226 462.19532154892977 1248.2605969079432 467.80279782381416Q1251.4491618485636 473.41027409869855 1255.5997937971301 476.5988390393191Q1259.7504257456967 479.7874039799396 1264.5882484142244 479.7874039799396L1264.5882484142244 479.7874039799396Q1269.426071082752 479.7874039799396 1273.5767030313182 476.5988390393191Q1277.7273349798847 473.41027409869855 1280.83343703411 467.80279782381416Q1283.9120514595365 462.19532154892977 1285.7537225890328 454.8561246597428Q1287.595393718529 447.5169277705559 1287.595393718529 438.9957628430355L1287.595393718529 438.9957628430355Q1287.595393718529 430.6944989459027 1285.7537225890328 423.245351541522Q1283.9120514595365 415.82369176593966 1280.83343703411 410.29867837745064Q1277.7273349798847 404.80115261776 1273.5767030313182 401.6125876771395Q1269.426071082752 398.42402273651896 1264.5882484142244 398.42402273651896L1264.5882484142244 398.42402273651896Q1259.7504257456967 398.42402273651896 1255.5997937971301 401.6125876771395Q1251.4491618485636 404.80115261776 1248.2605969079432 410.29867837745064Q1245.0720319673226 415.82369176593966 1243.230360837826 423.245351541522Q1241.3886897083298 430.6944989459027 1241.3886897083298 438.9957628430355ZM1398.5354635490853 389.1332042026419L1398.5354635490853 464.9165967999766Q1398.5354635490853 467.80279782381416 1398.6179264354805 469.91934524129505Q1398.7278769506747 472.0633802875744 1399.305117155442 473.4927369850939Q1399.8823573602094 474.9495813114119 1401.2292511713335 475.7192349177686Q1402.5761449824581 476.4888885241253 1405.1050068319155 476.6813019257144L1405.1050068319155 476.6813019257144L1409.3381016668773 477.09361635769125L1409.3381016668773 484.62522664846733L1382.0978615276103 487.51142767230493L1382.0978615276103 470.3041720444734L1381.7130347244324 470.3041720444734Q1371.6525625841982 489.0782225138167 1355.0500347899329 489.0782225138167L1355.0500347899329 489.0782225138167Q1346.1440430592338 489.0782225138167 1340.2616904963652 486.2744843763745Q1334.3518503046976 483.47074623893235 1330.7784585608988 478.7153864568Q1327.2050668171 473.98751430346607 1325.7482224907822 467.52792153582965Q1324.3188657932624 461.04084113939473 1324.3188657932624 453.7016442502078L1324.3188657932624 453.7016442502078L1324.3188657932624 411.75552270376863Q1324.3188657932624 406.14804642888424 1323.4392616717118 403.2618454050467Q1322.5596575501613 400.34815675241066 1317.5569091088432 399.96332994923233L1317.5569091088432 399.96332994923233L1313.296326645083 399.578503146054L1313.296326645083 392.04689285527786L1340.7289801859388 389.1332042026419L1340.7289801859388 456.01060506927786Q1340.7289801859388 465.6862504063333 1345.0720255360943 471.9534297723805Q1349.4425585150484 478.2480967672263 1359.0907162233057 478.2480967672263L1359.0907162233057 478.2480967672263Q1363.3512986870655 478.2480967672263 1367.4194677492364 475.25194522819487Q1371.4601491826093 472.2557936891635 1374.7586646384234 467.03314421745745Q1378.0296924654394 461.81049474575144 1380.0637769965251 454.8561246597428Q1382.0978615276103 447.90175457373425 1382.0978615276103 440.177730881369L1382.0978615276103 440.177730881369L1382.0978615276103 411.75552270376863Q1382.0978615276103 406.14804642888424 1381.2182574060603 403.2618454050467Q1380.3661409133078 400.34815675241066 1375.5283182447802 399.96332994923233L1375.5283182447802 399.96332994923233L1371.0753223794309 399.578503146054L1371.0753223794309 392.04689285527786L1398.5354635490853 389.1332042026419ZM1483.3622860211112 419.4795463961339L1483.3622860211112 419.4795463961339Q1479.1291911861495 419.4795463961339 1476.517866450296 416.208518569118Q1473.906541714443 412.9100031133037 1473.906541714443 408.64942064954346L1473.906541714443 408.64942064954346Q1473.906541714443 406.53287323206257 1476.2155025335132 402.6846052002792L1476.2155025335132 402.6846052002792Q1477.3699829430484 401.1178103587674 1477.5623963446374 400.2656938660153Q1477.7548097462268 399.3860897444648 1477.7548097462268 399.0012629412865L1477.7548097462268 399.0012629412865Q1465.5777901885122 401.1178103587674 1457.8537664961468 420.63402680566895L1457.8537664961468 420.63402680566895Q1454.7751520707202 428.38553812683267 1453.0159438276191 435.72473501601957Q1451.2842232133166 443.0639319052065 1451.2842232133166 450.2107153928043L1451.2842232133166 450.2107153928043L1451.2842232133166 467.80279782381416Q1451.2842232133166 474.17992770505526 1454.1979118659524 476.4888885241253Q1457.08411288979 478.82533697199375 1460.7674551487826 478.82533697199375L1460.7674551487826 478.82533697199375L1464.230896377388 478.82533697199375L1464.230896377388 485.9721204595915L1421.8999480277703 485.9721204595915L1421.8999480277703 478.6329235704046L1425.5832902867633 478.6329235704046Q1429.0742191441664 478.6329235704046 1431.960420168004 476.4064256377299Q1434.8466211918417 474.17992770505526 1434.8466211918417 467.80279782381416L1434.8466211918417 467.80279782381416L1434.8466211918417 412.14034950694696Q1434.8466211918417 406.53287323206257 1433.9945046990897 403.646672208225Q1433.1149005775392 400.732983555589 1428.2770779090115 400.34815675241066L1428.2770779090115 400.34815675241066L1419.206160405522 399.578503146054L1419.206160405522 392.23930625686705L1451.2842232133166 389.1332042026419L1451.2842232133166 417.17058557706383L1451.861463418084 417.17058557706383Q1453.0159438276191 411.56310930217944 1455.6272685634722 406.72528663365176Q1458.2385932993252 401.887463965124 1462.0043984447134 398.31407222132515Q1465.7702035901011 394.74068047752627 1470.4156128570398 392.70659594644076Q1475.0610221239785 390.6999990441537 1479.8988447925058 390.6999990441537L1479.8988447925058 390.6999990441537Q1486.275974673747 390.6999990441537 1490.6190200239025 395.3179206822938Q1494.962065374058 399.96332994923233 1494.962065374058 406.34045983047343L1494.962065374058 406.34045983047343Q1494.962065374058 412.9100031133037 1491.9659138350266 416.208518569118Q1488.9697622959957 419.4795463961339 1483.3622860211112 419.4795463961339ZM1570.1407301378267 390.6999990441537L1570.1407301378267 421.81599484400243L1563.956013658175 421.81599484400243Q1557.963710580112 398.42402273651896 1535.7537065109623 398.42402273651896L1535.7537065109623 398.42402273651896Q1528.9917498265431 398.42402273651896 1523.769100354837 402.27229076830235Q1518.5464508831305 406.14804642888424 1518.5464508831305 413.4872433180712L1518.5464508831305 413.4872433180712Q1518.5464508831305 419.0947195929556 1522.5046694301082 422.3932350487699Q1526.4628879770853 425.6642628757858 1537.4854271252648 428.1931247252435L1537.4854271252648 428.1931247252435L1548.5079662734443 430.8869123474919Q1555.077509556275 432.4262195602052 1560.300159027981 434.3778412048954Q1565.522808499687 436.3019752207871 1569.0962002434858 439.3805896462138Q1572.6695919872845 442.486691700439 1574.5112631167808 447.0221504521837Q1576.325446617479 451.5576092039285 1576.325446617479 458.5394669187355L1576.325446617479 458.5394669187355Q1576.325446617479 465.87866380792246 1573.6316589952307 471.48614008280686Q1570.9103837441835 477.09361635769125 1566.567338394028 481.05183490466845Q1562.2242930438724 485.01005345164566 1556.616816768988 487.04413798273123Q1551.0093404941035 489.0782225138167 1545.20945081763 489.0782225138167L1545.20945081763 489.0782225138167Q1537.6778405268537 489.0782225138167 1531.300710645613 486.46689777796365Q1524.9235807643718 483.8555730421106 1518.5464508831305 478.6329235704046L1518.5464508831305 478.6329235704046L1513.1313880098355 487.51142767230493L1506.7542581285943 487.51142767230493L1506.7542581285943 452.3547504390836L1513.1313880098355 453.12440404544026Q1514.4782818209596 459.30912052509217 1517.8592601631694 464.2294060800153Q1521.2402385053792 469.14969163493834 1525.8031848859223 472.64062049234184Q1530.3386436376672 476.1040617209469 1535.7537065109623 477.9457328504433Q1541.1687693842578 479.7874039799396 1546.7762456591418 479.7874039799396L1546.7762456591418 479.7874039799396Q1550.2396868877468 479.7874039799396 1553.5382023435614 478.6329235704046Q1556.8092301705774 477.4784431608696 1559.228141504841 475.5268215161794Q1561.647052839105 473.6026875002877 1563.1863600518182 471.1013132796285Q1564.7256672645317 468.5724514301708 1564.7256672645317 465.6862504063333L1564.7256672645317 465.6862504063333Q1564.7256672645317 456.3954318724562 1555.077509556275 452.5471638406728L1555.077509556275 452.5471638406728Q1550.6245136909256 450.7879555975718 1545.401864219219 449.16618549846305Q1540.2067023763116 447.5169277705559 1535.5612931093733 446.25249684582707Q1530.9158838424346 444.9880659210982 1527.6173683866205 444.21841231474156Q1524.3463405596044 443.44875870838484 1524.153927158015 443.44875870838484L1524.153927158015 443.44875870838484Q1514.4782818209596 440.9473844877256 1511.0148405923546 434.2678906897016Q1507.523911734951 427.61588452047596 1507.523911734951 418.70989278977726L1507.523911734951 418.70989278977726Q1507.523911734951 412.52517631012535 1509.9428230692151 407.1101134368301Q1512.3617344034787 401.69505056353483 1516.319952950456 397.7368320165576Q1520.2781714974335 393.7786134695804 1525.3084075675501 391.46965265051034Q1530.3386436376672 389.1332042026419 1535.7537065109623 389.1332042026419L1535.7537065109623 389.1332042026419Q1541.938422990614 389.1332042026419 1547.8207755534831 391.3597021353166Q1553.7306157451508 393.58620006799123 1559.1456786184458 398.42402273651896L1559.1456786184458 398.42402273651896L1564.7256672645317 390.6999990441537L1570.1407301378267 390.6999990441537Z " fill="#358d5f" transform="matrix(0.5550884143633825,0,0,0.5550884143633825,0,70.14997182381042)"/></g></svg>